/* XPM */
static char *haskell_28[] = {
/* columns rows colors chars-per-pixel */
"28 28 2 1 ",
"  c white",
". c None",
/* pixels */
"............................",
"............................",
"............................",
"............................",
"     ..     ................",
"      .      ...............",
".      .     ...............",
"...    .      ..............",
"...     .      .............",
"...      .     .............",
"....      .    ..           ",
".....     .      .          ",
"......    .      .          ",
"......     ..     ..........",
"......     ..     ..........",
"......    .        ..       ",
".....     .         .       ",
"....      .          .      ",
"...      .      .    .......",
"...     .      ..    .......",
"...    .      ...     ......",
".      .     .....      ....",
"      .      ......     ....",
"     ..     ........    ....",
"............................",
"............................",
"............................",
"............................"
};
